<svg width="34" height="34" viewBox="0 0 34 34" fill="none" xmlns="http://www.w3.org/2000/svg">
<path d="M25.8313 9.9975H32.2962C33.1625 11.9238 33.68 14.0338 33.7687 16.2625H26.3512C26.32 13.9075 26.125 11.8325 25.8313 9.9975ZM23.0063 1.1325C26.715 2.57375 29.7588 5.30125 31.6663 8.745H25.6213C24.935 5.23875 23.8925 2.74625 23.0063 1.1325ZM17.5938 8.745V0C18.9262 0.05875 20.2212 0.27 21.4587 0.61625C22.3962 2.195 23.6075 4.83125 24.3713 8.745H17.5938ZM9.37 23.78C9.0775 21.9438 8.875 19.8813 8.84375 17.515H16.3412V23.78H9.37ZM9.3575 9.9975H16.3412V16.2625H8.83625C8.8675 13.905 9.065 11.8338 9.3575 9.9975ZM12.4937 0.58875C13.7275 0.25625 15.0125 0.0450001 16.3412 0.00250012V8.745H9.56375C10.3325 4.81 11.5525 2.16375 12.4937 0.58875ZM2.085 8.745C4.02375 5.245 7.1625 2.50375 10.955 1.08125C10.0612 2.69375 9.00625 5.2 8.3125 8.745H2.085ZM7.58375 16.2625H0.00874996C0.09125 14.0363 0.5925 11.92 1.45625 9.9975H8.10125C7.81 11.8338 7.61375 13.9075 7.58375 16.2625ZM8.1175 23.78H1.505C0.6375 21.8513 0.08125 19.75 0 17.515H7.58875C7.61875 19.8813 7.82375 21.9413 8.1175 23.78ZM8.3225 25.0325C9.02125 28.6125 10.0925 31.1163 10.99 32.71C7.18375 31.2938 4.04375 28.5413 2.1025 25.0325H8.3225ZM16.3412 25.0325V33.775C15.0262 33.7338 13.7575 33.5263 12.535 33.2C11.5912 31.655 10.365 28.9963 9.59 25.0325H16.3412ZM24.3475 25.0325C23.5762 28.9725 22.3575 31.6213 21.4175 33.1725C20.1938 33.5113 18.91 33.695 17.5938 33.7537V25.0325H24.3475ZM17.5938 17.515H25.0912C25.0625 19.8813 24.8562 21.9425 24.5637 23.78H17.5938V17.515ZM25.0988 16.2625H17.5938V9.9975H24.5762C24.87 11.8338 25.0675 13.905 25.0988 16.2625ZM26.3462 17.515H33.7537C33.6712 19.7488 33.1212 21.85 32.2575 23.78H25.8175C26.11 21.9413 26.315 19.8813 26.3462 17.515ZM31.6562 25.0325C29.755 28.49 26.6975 31.2188 22.9725 32.6575C23.8662 31.0625 24.9237 28.575 25.6137 25.0325H31.6562Z" fill="black"/>
</svg>
